<svg id="Layer_1" data-name="Layer 1" xmlns="http://www.w3.org/2000/svg" viewBox="0 0 358.86 477.78"><defs><style>.cls-1{fill:#d39e16;stroke:#d39e16;stroke-miterlimit:10;}</style></defs><path class="cls-1" d="M169.27,475.16a147.3,147.3,0,0,1-29.86-20q-1.83-1.57-3.6-3.21C92.69,412.17,75,348.39,77.26,291.11c.21-5.27.62-10.54,1.22-15.78,3.45-29.7,14.36-56.73,27.21-83.41a734.07,734.07,0,0,1,40.15-71.87c5.54-8.83,11.18-17.62,17.16-26.16,0,0-13.39,30.92,1.41,87.21,5.25,20,20.91,39.9,42.55,42.77,18.57,2.47,25.61-19.39,31-33.25,5.09-13.18,7.91-27.1,10.27-41,4.68-27.47,7.4-56.32,21.34-81,12.55-22.26,31.35-42,56-50.53-2.32,1.85-3.67,4.63-4.9,7.33-7.43,16.28-14.12,33.15-16.43,51-3,23.55,2,47.34,17.1,66.06,41,50.82,59.63,95.65,59.63,148.15,0,89.33-82.33,125.67-82.33,125.67s47.66-77.67,41-125.67C333.44,246.54,296.9,208,296.9,208c-.6,6.58-1.68,13.15-2.87,19.64-5.17,28.2-13.43,61.86-36.47,81.08-24.68,20.58-61.83,20.06-87.08,39.94a66.37,66.37,0,0,0-23,36.58c-3.84,16.09-1,29.78,8.7,43.19,33.39,46.24,102.3,55.35,154.67,60.57-28.91,5.24-59,6.76-88.14,2.54A182.26,182.26,0,0,1,169.27,475.16Z" transform="translate(-76.57 -16.65)"/><path class="cls-1" d="M188.39,441.7c9.69.75,19.23.27,28.91.08s19.25-.37,28.84-1.3c27.89-2.76,56.21-5.66,80.59-20.51a141.7,141.7,0,0,0,17-12.16c24.64-20.49,44.14-51.2,51.91-82.29,14.38-57.53-7.05-112.19-39.94-159-8.17-11.64-17.29-26.78-28.51-35.88,34.94,28.36,68.8,60.52,89,101.47a181.28,181.28,0,0,1,9.52,137.32c-17.46,52.41-62.11,94.77-117.9,102a124.55,124.55,0,0,1-17.27,1.06c-18.43-.16-36.55-4.34-54-10.12C219.89,456.86,203.7,450.37,188.39,441.7Z" transform="translate(-76.57 -16.65)"/></svg>