<?xml version="1.0" encoding="UTF-8"?>
<svg width="752pt" height="752pt" version="1.1" viewBox="0 0 752 752" xmlns="http://www.w3.org/2000/svg">
 <g>
  <path d="m560.56 291.32c0-2.8281-1.5078-5.4336-3.9492-6.8438-2.4453-1.4102-5.4453-1.4023-7.8906 0.007813l-152.5 88.051c-8.1133 4.6836-13.113 13.336-13.113 22.707v176.1c0 2.8164 1.5 5.4219 3.9453 6.8281 2.4375 1.4102 5.4453 1.4141 7.8945 0.003906l146.67-84.68c11.727-6.7734 18.941-19.273 18.941-32.812z"/>
  <path d="m203.28 284.48c-2.4453-1.4062-5.4453-1.4102-7.8906 0-2.4453 1.4102-3.9492 4.0117-3.9492 6.8281v0.007812 169.36c0 13.535 7.2227 26.043 18.941 32.812l146.68 84.68s0.003906 0.003906 0.007812 0.003906c2.4453 1.4102 5.4492 1.4062 7.8945-0.003906 2.4375-1.4102 3.9336-4.0195 3.9336-6.832l0.003907-176.1c0-9.3711-4.9961-18.023-13.113-22.707z"/>
  <path d="m541.62 272.18c2.4453-1.4062 3.9453-4.0117 3.9492-6.8281 0-2.8164-1.4961-5.4258-3.9414-6.832 0 0-0.003906-0.003907-0.007812-0.003907l-146.67-84.691c-11.727-6.7656-26.164-6.7656-37.887 0l-146.67 84.68c-0.003907 0-0.007813 0.003907-0.007813 0.003907-2.4453 1.4102-3.9453 4.0195-3.9453 6.8398 0.003906 2.8242 1.5117 5.418 3.9531 6.8281l152.5 88.051c8.1133 4.6836 18.109 4.6836 26.223 0z"/>
 </g>
</svg>
